<svg width="142" height="51" viewBox="0 0 142 51" fill="none" xmlns="http://www.w3.org/2000/svg">
<mask id="path-1-outside-1_4_19" maskUnits="userSpaceOnUse" x="0" y="0" width="142" height="51" fill="black">
<rect fill="white" width="142" height="51"/>
<path d="M16.658 36H10.0671L24.9393 6.90909H32.8654L38.0643 36H31.4734L27.9364 13.5568H27.7092L16.658 36ZM18.1637 24.5653H33.7319L32.908 29.3665H17.3398L18.1637 24.5653ZM40.131 44.1818L45.1594 14.1818H51.1254L50.5146 17.8466H50.7844C51.1443 17.2595 51.6225 16.6629 52.2191 16.0568C52.8252 15.4413 53.578 14.9299 54.4776 14.5227C55.3772 14.1061 56.4331 13.8977 57.6452 13.8977C59.2456 13.8977 60.6424 14.3144 61.8356 15.1477C63.0288 15.9716 63.8905 17.2169 64.4208 18.8835C64.9606 20.5407 65.0221 22.6193 64.6055 25.1193C64.2077 27.553 63.4738 29.608 62.4038 31.2841C61.3432 32.9508 60.0695 34.215 58.5827 35.0767C57.1055 35.929 55.5382 36.3551 53.881 36.3551C52.7068 36.3551 51.7409 36.161 50.9833 35.7727C50.2352 35.3845 49.6528 34.8968 49.2362 34.3097C48.8195 33.7131 48.5259 33.1117 48.3555 32.5057H48.1282L46.1964 44.1818H40.131ZM49.2646 25.0909C49.0562 26.3883 49.0468 27.5199 49.2362 28.4858C49.435 29.4517 49.8327 30.2045 50.4293 30.7443C51.0259 31.2746 51.8119 31.5398 52.7873 31.5398C53.7721 31.5398 54.6481 31.2699 55.4151 30.7301C56.1822 30.1809 56.8214 29.4233 57.3327 28.4574C57.8441 27.482 58.2087 26.3598 58.4265 25.0909C58.6254 23.8314 58.6301 22.7235 58.4407 21.767C58.2513 20.8106 57.863 20.0625 57.2759 19.5227C56.6888 18.983 55.8933 18.7131 54.8896 18.7131C53.9142 18.7131 53.0382 18.9735 52.2617 19.4943C51.4947 20.0152 50.8555 20.7538 50.3441 21.7102C49.8327 22.6667 49.4729 23.7936 49.2646 25.0909ZM76.69 36.4261C74.4646 36.4261 72.6228 35.9527 71.1644 35.0057C69.7061 34.0492 68.6786 32.7235 68.082 31.0284C67.4949 29.3239 67.386 27.34 67.7553 25.0767C68.1152 22.8419 68.8633 20.8864 69.9996 19.2102C71.136 17.5341 72.5801 16.232 74.332 15.304C76.0839 14.3665 78.0584 13.8977 80.2553 13.8977C82.4712 13.8977 84.3084 14.3759 85.7667 15.3324C87.225 16.2794 88.2525 17.6051 88.8491 19.3097C89.4457 21.0142 89.5593 22.9981 89.19 25.2614C88.8207 27.4867 88.0631 29.4375 86.9173 31.1136C85.7714 32.7898 84.3273 34.0966 82.5849 35.0341C80.8424 35.9621 78.8775 36.4261 76.69 36.4261ZM77.2866 31.7386C78.3093 31.7386 79.2137 31.4498 79.9996 30.8722C80.7951 30.285 81.4532 29.4896 81.9741 28.4858C82.5044 27.4725 82.8737 26.3267 83.082 25.0483C83.2904 23.7888 83.3046 22.6714 83.1246 21.696C82.9447 20.7112 82.5659 19.9347 81.9883 19.3665C81.4201 18.7983 80.6388 18.5142 79.6445 18.5142C78.6218 18.5142 77.7127 18.8078 76.9173 19.3949C76.1218 19.9725 75.4637 20.768 74.9428 21.7812C74.422 22.7945 74.0574 23.9451 73.8491 25.233C73.6502 26.483 73.636 27.6004 73.8065 28.5852C73.9769 29.5606 74.351 30.3324 74.9286 30.9006C75.5063 31.4593 76.2923 31.7386 77.2866 31.7386ZM102.216 6.90909L97.386 36H91.3349L96.1644 6.90909H102.216ZM113.114 6.90909L108.284 36H102.233L107.063 6.90909H113.114ZM123.018 36.4261C120.793 36.4261 118.951 35.9527 117.493 35.0057C116.034 34.0492 115.007 32.7235 114.41 31.0284C113.823 29.3239 113.714 27.34 114.083 25.0767C114.443 22.8419 115.191 20.8864 116.328 19.2102C117.464 17.5341 118.908 16.232 120.66 15.304C122.412 14.3665 124.386 13.8977 126.583 13.8977C128.799 13.8977 130.636 14.3759 132.095 15.3324C133.553 16.2794 134.581 17.6051 135.177 19.3097C135.774 21.0142 135.887 22.9981 135.518 25.2614C135.149 27.4867 134.391 29.4375 133.245 31.1136C132.1 32.7898 130.655 34.0966 128.913 35.0341C127.171 35.9621 125.206 36.4261 123.018 36.4261ZM123.615 31.7386C124.637 31.7386 125.542 31.4498 126.328 30.8722C127.123 30.285 127.781 29.4896 128.302 28.4858C128.833 27.4725 129.202 26.3267 129.41 25.0483C129.618 23.7888 129.633 22.6714 129.453 21.696C129.273 20.7112 128.894 19.9347 128.316 19.3665C127.748 18.7983 126.967 18.5142 125.973 18.5142C124.95 18.5142 124.041 18.8078 123.245 19.3949C122.45 19.9725 121.792 20.768 121.271 21.7812C120.75 22.7945 120.386 23.9451 120.177 25.233C119.978 26.483 119.964 27.6004 120.135 28.5852C120.305 29.5606 120.679 30.3324 121.257 30.9006C121.834 31.4593 122.62 31.7386 123.615 31.7386Z"/>
</mask>
<path d="M16.658 36H10.0671L24.9393 6.90909H32.8654L38.0643 36H31.4734L27.9364 13.5568H27.7092L16.658 36ZM18.1637 24.5653H33.7319L32.908 29.3665H17.3398L18.1637 24.5653ZM40.131 44.1818L45.1594 14.1818H51.1254L50.5146 17.8466H50.7844C51.1443 17.2595 51.6225 16.6629 52.2191 16.0568C52.8252 15.4413 53.578 14.9299 54.4776 14.5227C55.3772 14.1061 56.4331 13.8977 57.6452 13.8977C59.2456 13.8977 60.6424 14.3144 61.8356 15.1477C63.0288 15.9716 63.8905 17.2169 64.4208 18.8835C64.9606 20.5407 65.0221 22.6193 64.6055 25.1193C64.2077 27.553 63.4738 29.608 62.4038 31.2841C61.3432 32.9508 60.0695 34.215 58.5827 35.0767C57.1055 35.929 55.5382 36.3551 53.881 36.3551C52.7068 36.3551 51.7409 36.161 50.9833 35.7727C50.2352 35.3845 49.6528 34.8968 49.2362 34.3097C48.8195 33.7131 48.5259 33.1117 48.3555 32.5057H48.1282L46.1964 44.1818H40.131ZM49.2646 25.0909C49.0562 26.3883 49.0468 27.5199 49.2362 28.4858C49.435 29.4517 49.8327 30.2045 50.4293 30.7443C51.0259 31.2746 51.8119 31.5398 52.7873 31.5398C53.7721 31.5398 54.6481 31.2699 55.4151 30.7301C56.1822 30.1809 56.8214 29.4233 57.3327 28.4574C57.8441 27.482 58.2087 26.3598 58.4265 25.0909C58.6254 23.8314 58.6301 22.7235 58.4407 21.767C58.2513 20.8106 57.863 20.0625 57.2759 19.5227C56.6888 18.983 55.8933 18.7131 54.8896 18.7131C53.9142 18.7131 53.0382 18.9735 52.2617 19.4943C51.4947 20.0152 50.8555 20.7538 50.3441 21.7102C49.8327 22.6667 49.4729 23.7936 49.2646 25.0909ZM76.69 36.4261C74.4646 36.4261 72.6228 35.9527 71.1644 35.0057C69.7061 34.0492 68.6786 32.7235 68.082 31.0284C67.4949 29.3239 67.386 27.34 67.7553 25.0767C68.1152 22.8419 68.8633 20.8864 69.9996 19.2102C71.136 17.5341 72.5801 16.232 74.332 15.304C76.0839 14.3665 78.0584 13.8977 80.2553 13.8977C82.4712 13.8977 84.3084 14.3759 85.7667 15.3324C87.225 16.2794 88.2525 17.6051 88.8491 19.3097C89.4457 21.0142 89.5593 22.9981 89.19 25.2614C88.8207 27.4867 88.0631 29.4375 86.9173 31.1136C85.7714 32.7898 84.3273 34.0966 82.5849 35.0341C80.8424 35.9621 78.8775 36.4261 76.69 36.4261ZM77.2866 31.7386C78.3093 31.7386 79.2137 31.4498 79.9996 30.8722C80.7951 30.285 81.4532 29.4896 81.9741 28.4858C82.5044 27.4725 82.8737 26.3267 83.082 25.0483C83.2904 23.7888 83.3046 22.6714 83.1246 21.696C82.9447 20.7112 82.5659 19.9347 81.9883 19.3665C81.4201 18.7983 80.6388 18.5142 79.6445 18.5142C78.6218 18.5142 77.7127 18.8078 76.9173 19.3949C76.1218 19.9725 75.4637 20.768 74.9428 21.7812C74.422 22.7945 74.0574 23.9451 73.8491 25.233C73.6502 26.483 73.636 27.6004 73.8065 28.5852C73.9769 29.5606 74.351 30.3324 74.9286 30.9006C75.5063 31.4593 76.2923 31.7386 77.2866 31.7386ZM102.216 6.90909L97.386 36H91.3349L96.1644 6.90909H102.216ZM113.114 6.90909L108.284 36H102.233L107.063 6.90909H113.114ZM123.018 36.4261C120.793 36.4261 118.951 35.9527 117.493 35.0057C116.034 34.0492 115.007 32.7235 114.41 31.0284C113.823 29.3239 113.714 27.34 114.083 25.0767C114.443 22.8419 115.191 20.8864 116.328 19.2102C117.464 17.5341 118.908 16.232 120.66 15.304C122.412 14.3665 124.386 13.8977 126.583 13.8977C128.799 13.8977 130.636 14.3759 132.095 15.3324C133.553 16.2794 134.581 17.6051 135.177 19.3097C135.774 21.0142 135.887 22.9981 135.518 25.2614C135.149 27.4867 134.391 29.4375 133.245 31.1136C132.1 32.7898 130.655 34.0966 128.913 35.0341C127.171 35.9621 125.206 36.4261 123.018 36.4261ZM123.615 31.7386C124.637 31.7386 125.542 31.4498 126.328 30.8722C127.123 30.285 127.781 29.4896 128.302 28.4858C128.833 27.4725 129.202 26.3267 129.41 25.0483C129.618 23.7888 129.633 22.6714 129.453 21.696C129.273 20.7112 128.894 19.9347 128.316 19.3665C127.748 18.7983 126.967 18.5142 125.973 18.5142C124.95 18.5142 124.041 18.8078 123.245 19.3949C122.45 19.9725 121.792 20.768 121.271 21.7812C120.75 22.7945 120.386 23.9451 120.177 25.233C119.978 26.483 119.964 27.6004 120.135 28.5852C120.305 29.5606 120.679 30.3324 121.257 30.9006C121.834 31.4593 122.62 31.7386 123.615 31.7386Z" fill="white"/>
<path d="M16.658 36V42H20.3915L22.0408 38.6505L16.658 36ZM10.0671 36L4.72477 33.2688L0.261126 42H10.0671V36ZM24.9393 6.90909V0.90909H21.2681L19.5969 4.17792L24.9393 6.90909ZM32.8654 6.90909L38.7718 5.85355L37.8882 0.90909H32.8654V6.90909ZM38.0643 36V42H45.2316L43.9707 34.9445L38.0643 36ZM31.4734 36L25.5465 36.934L26.3449 42H31.4734V36ZM27.9364 13.5568L33.8633 12.6228L33.0649 7.55682H27.9364V13.5568ZM27.7092 13.5568V7.55682H23.9756L22.3263 10.9063L27.7092 13.5568ZM18.1637 24.5653V18.5653H13.1056L12.2501 23.5506L18.1637 24.5653ZM33.7319 24.5653L39.6455 25.5801L40.8492 18.5653H33.7319V24.5653ZM32.908 29.3665V35.3665H37.9661L38.8216 30.3812L32.908 29.3665ZM17.3398 29.3665L11.4263 28.3517L10.2226 35.3665H17.3398V29.3665ZM16.658 30H10.0671V42H16.658V30ZM15.4095 38.7312L30.2816 9.64026L19.5969 4.17792L4.72477 33.2688L15.4095 38.7312ZM24.9393 12.9091H32.8654V0.90909H24.9393V12.9091ZM26.959 7.96463L32.1579 37.0555L43.9707 34.9445L38.7718 5.85355L26.959 7.96463ZM38.0643 30H31.4734V42H38.0643V30ZM37.4002 35.066L33.8633 12.6228L22.0096 14.4909L25.5465 36.934L37.4002 35.066ZM27.9364 7.55682H27.7092V19.5568H27.9364V7.55682ZM22.3263 10.9063L11.2752 33.3495L22.0408 38.6505L33.092 16.2073L22.3263 10.9063ZM18.1637 30.5653H33.7319V18.5653H18.1637V30.5653ZM27.8183 23.5506L26.9945 28.3517L38.8216 30.3812L39.6455 25.5801L27.8183 23.5506ZM32.908 23.3665H17.3398V35.3665H32.908V23.3665ZM23.2534 30.3812L24.0773 25.5801L12.2501 23.5506L11.4263 28.3517L23.2534 30.3812ZM40.131 44.1818L34.2136 43.19L33.0417 50.1818H40.131V44.1818ZM45.1594 14.1818V8.18182H40.0814L39.242 13.19L45.1594 14.1818ZM51.1254 14.1818L57.0437 15.1682L58.2081 8.18182H51.1254V14.1818ZM50.5146 17.8466L44.5962 16.8602L43.4318 23.8466H50.5146V17.8466ZM50.7844 17.8466V23.8466H54.1443L55.9001 20.982L50.7844 17.8466ZM52.2191 16.0568L47.9437 11.8472L47.9432 11.8477L52.2191 16.0568ZM54.4776 14.5227L56.9518 19.9889L56.9756 19.9781L56.9992 19.9671L54.4776 14.5227ZM61.8356 15.1477L58.4001 20.0668L58.4132 20.076L58.4264 20.0851L61.8356 15.1477ZM64.4208 18.8835L58.7033 20.7027L58.7095 20.7223L58.7158 20.7417L64.4208 18.8835ZM64.6055 25.1193L58.6871 24.1329L58.6855 24.1423L58.684 24.1516L64.6055 25.1193ZM62.4038 31.2841L57.3465 28.0554L57.3418 28.0628L62.4038 31.2841ZM58.5827 35.0767L61.5811 40.2738L61.5916 40.2678L58.5827 35.0767ZM50.9833 35.7727L48.2194 41.0982L48.2331 41.1053L48.2468 41.1123L50.9833 35.7727ZM49.2361 34.3097L44.3171 37.7452L44.33 37.7637L44.3431 37.7821L49.2361 34.3097ZM48.3555 32.5057L54.1314 30.8812L52.9008 26.5057H48.3555V32.5057ZM48.1282 32.5057V26.5057H43.0393L42.2087 31.5263L48.1282 32.5057ZM46.1964 44.1818V50.1818H51.2852L52.1159 45.1612L46.1964 44.1818ZM49.2646 25.0909L43.3405 24.1396L49.2646 25.0909ZM49.2361 28.4858L43.3483 29.6403L43.3537 29.668L43.3594 29.6957L49.2361 28.4858ZM50.4293 30.7443L46.4039 35.1935L46.4234 35.2112L46.4431 35.2288L50.4293 30.7443ZM55.4151 30.7301L58.8681 35.637L58.8882 35.6228L58.9083 35.6084L55.4151 30.7301ZM57.3327 28.4574L62.6355 31.2647L62.6411 31.254L62.6467 31.2434L57.3327 28.4574ZM58.4265 25.0909L64.34 26.1059L64.3468 26.0663L64.3531 26.0267L58.4265 25.0909ZM58.4407 21.767L52.555 22.9325V22.9325L58.4407 21.767ZM57.2759 19.5227L61.3367 15.1057L57.2759 19.5227ZM52.2617 19.4943L48.9195 14.5114L48.9053 14.5209L48.8912 14.5305L52.2617 19.4943ZM50.3441 21.7102L45.0529 18.8813L50.3441 21.7102ZM46.0485 45.1737L51.0769 15.1737L39.242 13.19L34.2136 43.19L46.0485 45.1737ZM45.1594 20.1818H51.1254V8.18182H45.1594V20.1818ZM45.207 13.1954L44.5962 16.8602L56.4329 18.833L57.0437 15.1682L45.207 13.1954ZM50.5146 23.8466H50.7844V11.8466H50.5146V23.8466ZM55.9001 20.982C55.9738 20.8617 56.1467 20.6197 56.495 20.2659L47.9432 11.8477C47.0983 12.706 46.3148 13.6573 45.6688 14.7112L55.9001 20.982ZM56.4945 20.2664C56.5139 20.2467 56.6295 20.1347 56.9518 19.9889L52.0035 9.05659C50.5265 9.72512 49.1364 10.6359 47.9437 11.8472L56.4945 20.2664ZM56.9992 19.9671C56.9528 19.9886 57.1142 19.8977 57.6452 19.8977V7.89773C55.752 7.89773 53.8017 8.2235 51.956 9.07833L56.9992 19.9671ZM57.6452 19.8977C58.1449 19.8977 58.3145 20.0071 58.4001 20.0668L65.2711 10.2287C62.9703 8.62173 60.3463 7.89773 57.6452 7.89773V19.8977ZM58.4264 20.0851C58.4008 20.0674 58.4057 20.06 58.4429 20.1139C58.4871 20.1776 58.5914 20.3511 58.7033 20.7027L70.1384 17.0643C69.2908 14.4004 67.7431 11.9354 65.2447 10.2103L58.4264 20.0851ZM58.7158 20.7417C58.8521 21.1601 59.0121 22.1829 58.6871 24.1329L70.5238 26.1057C71.0322 23.0557 71.0691 19.9213 70.1258 17.0253L58.7158 20.7417ZM58.684 24.1516C58.3871 25.9682 57.8861 27.2102 57.3465 28.0554L67.461 34.5127C69.0615 32.0057 70.0283 29.1379 70.5269 26.087L58.684 24.1516ZM57.3418 28.0628C56.72 29.0399 56.1115 29.5741 55.5739 29.8857L61.5916 40.2678C64.0275 38.8558 65.9663 36.8616 67.4657 34.5053L57.3418 28.0628ZM55.5844 29.8796C54.9911 30.2219 54.454 30.3551 53.881 30.3551V42.3551C56.6224 42.3551 59.2199 41.6361 61.5811 40.2738L55.5844 29.8796ZM53.881 30.3551C53.6178 30.3551 53.4863 30.3328 53.4582 30.3271C53.4329 30.3221 53.538 30.3399 53.7199 30.4331L48.2468 41.1123C50.1104 42.0674 52.0968 42.3551 53.881 42.3551V30.3551ZM53.7472 30.4472C53.7195 30.4328 53.7593 30.4501 53.8376 30.5156C53.9185 30.5834 54.0243 30.6894 54.1292 30.8372L44.3431 37.7821C45.3991 39.2702 46.7688 40.3454 48.2194 41.0982L53.7472 30.4472ZM54.1552 30.8741C54.1097 30.809 54.0943 30.777 54.0953 30.779C54.0958 30.7801 54.1003 30.7895 54.107 30.8069C54.1138 30.8245 54.1224 30.8494 54.1314 30.8812L42.5796 34.1302C42.958 35.4758 43.5742 36.6816 44.3171 37.7452L54.1552 30.8741ZM48.3555 26.5057H48.1282V38.5057H48.3555V26.5057ZM42.2087 31.5263L40.2769 43.2024L52.1159 45.1612L54.0477 33.4851L42.2087 31.5263ZM46.1964 38.1818H40.131V50.1818H46.1964V38.1818ZM43.3405 24.1396C43.0552 25.9157 42.9856 27.7908 43.3483 29.6403L55.124 27.3313C55.1079 27.2489 55.0572 26.8608 55.1887 26.0422L43.3405 24.1396ZM43.3594 29.6957C43.7563 31.6234 44.6651 33.6204 46.4039 35.1935L54.4548 26.2951C54.7056 26.522 54.8797 26.7656 54.9888 26.9721C55.0927 27.1689 55.1156 27.2892 55.1129 27.2759L43.3594 29.6957ZM46.4431 35.2288C48.3687 36.9404 50.6835 37.5398 52.7873 37.5398V25.5398C52.8399 25.5398 53.0614 25.5468 53.3842 25.6557C53.7237 25.7702 54.0883 25.969 54.4155 26.2599L46.4431 35.2288ZM52.7873 37.5398C54.9426 37.5398 57.0378 36.9249 58.8681 35.637L51.9622 25.8233C52.0817 25.7392 52.2381 25.6582 52.4162 25.6034C52.5916 25.5493 52.7254 25.5398 52.7873 25.5398V37.5398ZM58.9083 35.6084C60.542 34.4386 61.7583 32.9216 62.6355 31.2647L52.03 25.6501C51.9545 25.7926 51.9009 25.8608 51.8841 25.8808C51.8692 25.8984 51.8809 25.8812 51.922 25.8518L58.9083 35.6084ZM62.6467 31.2434C63.4937 29.6279 64.0336 27.8909 64.34 26.1059L52.513 24.0759C52.3837 24.8288 52.1945 25.3362 52.0188 25.6714L62.6467 31.2434ZM64.3531 26.0267C64.63 24.2729 64.6879 22.427 64.3264 20.6016L52.555 22.9325C52.5723 23.02 52.6207 23.39 52.4999 24.1551L64.3531 26.0267ZM64.3264 20.6016C63.9456 18.6786 63.0546 16.685 61.3367 15.1057L53.2151 23.9397C52.9653 23.7101 52.7914 23.4634 52.6819 23.2525C52.5775 23.0513 52.5536 22.9258 52.555 22.9325L64.3264 20.6016ZM61.3367 15.1057C59.3765 13.3036 56.9927 12.7131 54.8896 12.7131V24.7131C54.8599 24.7131 54.6419 24.7096 54.3112 24.5974C53.9606 24.4784 53.5693 24.2653 53.2151 23.9397L61.3367 15.1057ZM54.8896 12.7131C52.7782 12.7131 50.7287 13.2979 48.9195 14.5114L55.6039 24.4772C55.5017 24.5458 55.3661 24.6135 55.2109 24.6596C55.0578 24.7051 54.9419 24.7131 54.8896 24.7131V12.7131ZM48.8912 14.5305C47.1943 15.6827 45.9444 17.2138 45.0529 18.8813L55.6353 24.5392C55.7038 24.4111 55.7457 24.3633 55.744 24.3652C55.7433 24.3661 55.7334 24.3773 55.7134 24.3953C55.6932 24.4133 55.666 24.4352 55.6322 24.4582L48.8912 14.5305ZM45.0529 18.8813C44.1697 20.5332 43.6327 22.32 43.3405 24.1396L55.1887 26.0422C55.3131 25.2672 55.4958 24.8001 55.6353 24.5392L45.0529 18.8813ZM71.1644 35.0057L67.8739 40.0229L67.8853 40.0304L67.8968 40.0378L71.1644 35.0057ZM68.082 31.0284L62.4091 32.9824L62.4157 33.0014L62.4223 33.0204L68.082 31.0284ZM67.7553 25.0767L73.677 26.043L73.679 26.0305L67.7553 25.0767ZM69.9996 19.2102L65.0334 15.8433V15.8433L69.9996 19.2102ZM74.332 15.304L77.1407 20.606L77.1518 20.6001L77.163 20.5941L74.332 15.304ZM85.7667 15.3324L82.4762 20.3496L82.4876 20.3571L82.4991 20.3645L85.7667 15.3324ZM88.8491 19.3097L83.1859 21.2918V21.2918L88.8491 19.3097ZM89.19 25.2614L95.109 26.2437L95.1104 26.2357L95.1117 26.2277L89.19 25.2614ZM86.9173 31.1136L81.964 27.7275L86.9173 31.1136ZM82.5849 35.0341L85.4054 40.3298L85.4166 40.3238L85.4278 40.3178L82.5849 35.0341ZM79.9996 30.8722L83.5529 35.7069L83.5628 35.6996L79.9996 30.8722ZM81.9741 28.4858L76.6581 25.7036L76.6532 25.713L76.6483 25.7224L81.9741 28.4858ZM83.082 25.0483L77.1625 24.0691L77.1613 24.0762L77.1601 24.0832L83.082 25.0483ZM83.1246 21.696L77.2223 22.7743L77.2242 22.7845L83.1246 21.696ZM81.9883 19.3665L77.7456 23.6091L77.7632 23.6266L77.7808 23.644L81.9883 19.3665ZM76.9173 19.3949L80.4428 24.2498L80.4617 24.2361L80.4804 24.2223L76.9173 19.3949ZM73.8491 25.233L67.9261 24.2748L67.9248 24.2825L67.9236 24.2903L73.8491 25.233ZM73.8065 28.5852L67.8944 29.6085L67.896 29.6181L73.8065 28.5852ZM74.9286 30.9006L70.7212 35.1781L70.7392 35.1958L70.7573 35.2133L74.9286 30.9006ZM76.69 30.4261C75.3027 30.4261 74.679 30.1339 74.4321 29.9735L67.8968 40.0378C70.5665 41.7714 73.6265 42.4261 76.69 42.4261V30.4261ZM74.4549 29.9885C74.1321 29.7767 73.9159 29.5313 73.7417 29.0364L62.4223 33.0204C63.4414 35.9157 65.2801 38.3218 67.8739 40.0229L74.4549 29.9885ZM73.7549 29.0744C73.567 28.5288 73.425 27.5873 73.677 26.043L61.8336 24.1104C61.347 27.0926 61.4228 30.1189 62.4091 32.9824L73.7549 29.0744ZM73.679 26.0305C73.9162 24.5578 74.3761 23.4472 74.9659 22.5772L65.0334 15.8433C63.3505 18.3256 62.3142 21.1259 61.8316 24.1229L73.679 26.0305ZM74.9659 22.5772C75.5643 21.6946 76.2744 21.0649 77.1407 20.606L71.5234 10.0019C68.8858 11.3991 66.7077 13.3736 65.0334 15.8433L74.9659 22.5772ZM77.163 20.5941C77.9548 20.1704 78.9397 19.8977 80.2553 19.8977V7.89773C77.1771 7.89773 74.213 8.56256 71.5011 10.0138L77.163 20.5941ZM80.2553 19.8977C81.6168 19.8977 82.2291 20.1875 82.4762 20.3496L89.0572 10.3152C86.3877 8.56436 83.3257 7.89773 80.2553 7.89773V19.8977ZM82.4991 20.3645C82.7978 20.5586 83.0099 20.789 83.1859 21.2918L94.5122 17.3276C93.495 14.4213 91.6522 12.0002 89.0343 10.3002L82.4991 20.3645ZM83.1859 21.2918C83.3739 21.8289 83.5188 22.7598 83.2683 24.2951L95.1117 26.2277C95.5998 23.2364 95.5174 20.1995 94.5122 17.3276L83.1859 21.2918ZM83.2709 24.2791C83.0287 25.7389 82.5644 26.8494 81.964 27.7275L91.8705 34.4997C93.5618 32.0256 94.6127 29.2346 95.109 26.2437L83.2709 24.2791ZM81.964 27.7275C81.3451 28.633 80.6167 29.2797 79.742 29.7503L85.4278 40.3178C88.0379 38.9135 90.1978 36.9466 91.8705 34.4997L81.964 27.7275ZM79.7643 29.7384C78.9809 30.1556 78.002 30.4261 76.69 30.4261V42.4261C79.7529 42.4261 82.704 41.7686 85.4054 40.3298L79.7643 29.7384ZM77.2866 37.7386C79.5215 37.7386 81.6848 37.0798 83.5529 35.7069L76.4464 26.0374C76.5632 25.9516 76.7218 25.8654 76.9065 25.8064C77.0883 25.7484 77.2262 25.7386 77.2866 25.7386V37.7386ZM83.5628 35.6996C85.1952 34.4947 86.4177 32.9492 87.2998 31.2492L76.6483 25.7224C76.5655 25.882 76.5005 25.97 76.467 26.0104C76.4353 26.0487 76.4245 26.0536 76.4365 26.0447L83.5628 35.6996ZM87.29 31.268C88.1549 29.6154 88.7057 27.8431 89.0039 26.0133L77.1601 24.0832C77.0417 24.8103 76.8538 25.3296 76.6581 25.7036L87.29 31.268ZM89.0016 26.0275C89.2923 24.2698 89.3613 22.4302 89.0251 20.6076L77.2242 22.7845C77.2478 22.9126 77.2884 23.3078 77.1625 24.0691L89.0016 26.0275ZM89.027 20.6177C88.6779 18.707 87.8432 16.7094 86.1957 15.0889L77.7808 23.644C77.5526 23.4196 77.4024 23.1888 77.313 23.0055C77.2281 22.8314 77.2155 22.7369 77.2223 22.7743L89.027 20.6177ZM86.2309 15.1238C84.2829 13.1758 81.8297 12.5142 79.6445 12.5142V24.5142C79.5759 24.5142 79.3071 24.5047 78.9258 24.366C78.5217 24.2191 78.1031 23.9666 77.7456 23.6091L86.2309 15.1238ZM79.6445 12.5142C77.3866 12.5142 75.2189 13.1911 73.3541 14.5674L80.4804 24.2223C80.3748 24.3002 80.2233 24.3847 80.0394 24.4441C79.8576 24.5028 79.7149 24.5142 79.6445 24.5142V12.5142ZM73.3917 14.54C71.7231 15.7517 70.4888 17.3219 69.6065 19.0383L80.2791 24.5242C80.3616 24.3637 80.4238 24.2812 80.4499 24.2496C80.474 24.2204 80.4726 24.2282 80.4428 24.2498L73.3917 14.54ZM69.6065 19.0383C68.7592 20.6866 68.2207 22.4535 67.9261 24.2748L79.7721 26.1911C79.8941 25.4366 80.0847 24.9024 80.2791 24.5242L69.6065 19.0383ZM67.9236 24.2903C67.6474 26.0264 67.586 27.8267 67.8944 29.6085L79.7186 27.562C79.686 27.374 79.653 26.9395 79.7746 26.1756L67.9236 24.2903ZM67.896 29.6181C68.2333 31.5479 69.0692 33.5532 70.7212 35.1781L79.1361 26.623C79.3646 26.8478 79.5194 27.0834 79.6141 27.2788C79.7044 27.4649 79.7206 27.5736 79.7169 27.5523L67.896 29.6181ZM70.7573 35.2133C72.7056 37.0978 75.125 37.7386 77.2866 37.7386V25.7386C77.3461 25.7386 77.5981 25.7467 77.9607 25.8756C78.3445 26.012 78.7487 26.2481 79.1 26.5878L70.7573 35.2133ZM102.216 6.90909L108.135 7.89174L109.294 0.90909H102.216V6.90909ZM97.386 36V42H102.472L103.305 36.9826L97.386 36ZM91.3349 36L85.4159 35.0174L84.2567 42H91.3349V36ZM96.1644 6.90909V0.90909H91.0784L90.2454 5.92645L96.1644 6.90909ZM96.2966 5.92645L91.467 35.0174L103.305 36.9826L108.135 7.89174L96.2966 5.92645ZM97.386 30H91.3349V42H97.386V30ZM97.2539 36.9826L102.083 7.89174L90.2454 5.92645L85.4159 35.0174L97.2539 36.9826ZM96.1644 12.9091H102.216V0.90909H96.1644V12.9091ZM113.114 6.90909L119.033 7.89174L120.192 0.90909H113.114V6.90909ZM108.284 36V42H113.37L114.203 36.9826L108.284 36ZM102.233 36L96.3143 35.0174L95.1551 42H102.233V36ZM107.063 6.90909V0.90909H101.977L101.144 5.92645L107.063 6.90909ZM107.195 5.92645L102.365 35.0174L114.203 36.9826L119.033 7.89174L107.195 5.92645ZM108.284 30H102.233V42H108.284V30ZM108.152 36.9826L112.982 7.89174L101.144 5.92645L96.3143 35.0174L108.152 36.9826ZM107.063 12.9091H113.114V0.90909H107.063V12.9091ZM117.493 35.0057L114.202 40.0229L114.213 40.0304L114.225 40.0378L117.493 35.0057ZM114.41 31.0284L108.737 32.9824L108.744 33.0014L108.75 33.0204L114.41 31.0284ZM114.083 25.0767L120.005 26.043L120.007 26.0305L114.083 25.0767ZM116.328 19.2102L111.362 15.8433V15.8433L116.328 19.2102ZM120.66 15.304L123.469 20.606L123.48 20.6001L123.491 20.5941L120.66 15.304ZM132.095 15.3324L128.804 20.3496L128.816 20.3571L128.827 20.3645L132.095 15.3324ZM135.177 19.3097L129.514 21.2918V21.2918L135.177 19.3097ZM135.518 25.2614L141.437 26.2437L141.438 26.2357L141.44 26.2277L135.518 25.2614ZM133.245 31.1136L128.292 27.7275L133.245 31.1136ZM128.913 35.0341L131.734 40.3298L131.745 40.3238L131.756 40.3178L128.913 35.0341ZM126.328 30.8722L129.881 35.7069L129.891 35.6996L126.328 30.8722ZM128.302 28.4858L122.986 25.7036L122.981 25.713L122.976 25.7224L128.302 28.4858ZM129.41 25.0483L123.491 24.0691L123.489 24.0762L123.488 24.0832L129.41 25.0483ZM129.453 21.696L123.55 22.7743L123.552 22.7845L129.453 21.696ZM128.316 19.3665L124.074 23.6091L124.091 23.6266L124.109 23.644L128.316 19.3665ZM123.245 19.3949L126.771 24.2498L126.79 24.2361L126.808 24.2223L123.245 19.3949ZM120.177 25.233L114.254 24.2748L114.253 24.2825L114.252 24.2903L120.177 25.233ZM120.135 28.5852L114.222 29.6085L114.224 29.6181L120.135 28.5852ZM121.257 30.9006L117.049 35.1781L117.067 35.1958L117.085 35.2133L121.257 30.9006ZM123.018 30.4261C121.631 30.4261 121.007 30.1339 120.76 29.9735L114.225 40.0378C116.895 41.7714 119.955 42.4261 123.018 42.4261V30.4261ZM120.783 29.9885C120.46 29.7767 120.244 29.5313 120.07 29.0364L108.75 33.0204C109.769 35.9157 111.608 38.3218 114.202 40.0229L120.783 29.9885ZM120.083 29.0744C119.895 28.5288 119.753 27.5873 120.005 26.043L108.162 24.1104C107.675 27.0926 107.751 30.1189 108.737 32.9824L120.083 29.0744ZM120.007 26.0305C120.244 24.5578 120.704 23.4472 121.294 22.5772L111.362 15.8433C109.679 18.3256 108.642 21.1259 108.16 24.1229L120.007 26.0305ZM121.294 22.5772C121.892 21.6946 122.603 21.0649 123.469 20.606L117.852 10.0019C115.214 11.3991 113.036 13.3736 111.362 15.8433L121.294 22.5772ZM123.491 20.5941C124.283 20.1704 125.268 19.8977 126.583 19.8977V7.89773C123.505 7.89773 120.541 8.56256 117.829 10.0138L123.491 20.5941ZM126.583 19.8977C127.945 19.8977 128.557 20.1875 128.804 20.3496L135.385 10.3152C132.716 8.56436 129.654 7.89773 126.583 7.89773V19.8977ZM128.827 20.3645C129.126 20.5586 129.338 20.789 129.514 21.2918L140.84 17.3276C139.823 14.4213 137.98 12.0002 135.362 10.3002L128.827 20.3645ZM129.514 21.2918C129.702 21.8289 129.847 22.7598 129.596 24.2951L141.44 26.2277C141.928 23.2364 141.846 20.1995 140.84 17.3276L129.514 21.2918ZM129.599 24.2791C129.357 25.7389 128.893 26.8494 128.292 27.7275L138.199 34.4997C139.89 32.0256 140.941 29.2346 141.437 26.2437L129.599 24.2791ZM128.292 27.7275C127.673 28.633 126.945 29.2797 126.07 29.7503L131.756 40.3178C134.366 38.9135 136.526 36.9466 138.199 34.4997L128.292 27.7275ZM126.092 29.7384C125.309 30.1556 124.33 30.4261 123.018 30.4261V42.4261C126.081 42.4261 129.032 41.7686 131.734 40.3298L126.092 29.7384ZM123.615 37.7386C125.85 37.7386 128.013 37.0798 129.881 35.7069L122.775 26.0374C122.891 25.9516 123.05 25.8654 123.235 25.8064C123.416 25.7484 123.554 25.7386 123.615 25.7386V37.7386ZM129.891 35.6996C131.523 34.4947 132.746 32.9492 133.628 31.2492L122.976 25.7224C122.894 25.882 122.829 25.97 122.795 26.0104C122.763 26.0487 122.753 26.0536 122.765 26.0447L129.891 35.6996ZM133.618 31.268C134.483 29.6154 135.034 27.8431 135.332 26.0133L123.488 24.0832C123.37 24.8103 123.182 25.3296 122.986 25.7036L133.618 31.268ZM135.33 26.0275C135.62 24.2698 135.689 22.4302 135.353 20.6076L123.552 22.7845C123.576 22.9126 123.617 23.3078 123.491 24.0691L135.33 26.0275ZM135.355 20.6177C135.006 18.707 134.171 16.7094 132.524 15.0889L124.109 23.644C123.881 23.4196 123.731 23.1888 123.641 23.0055C123.556 22.8314 123.544 22.7369 123.55 22.7743L135.355 20.6177ZM132.559 15.1238C130.611 13.1758 128.158 12.5142 125.973 12.5142V24.5142C125.904 24.5142 125.635 24.5047 125.254 24.366C124.85 24.2191 124.431 23.9666 124.074 23.6091L132.559 15.1238ZM125.973 12.5142C123.715 12.5142 121.547 13.1911 119.682 14.5674L126.808 24.2223C126.703 24.3002 126.551 24.3847 126.368 24.4441C126.186 24.5028 126.043 24.5142 125.973 24.5142V12.5142ZM119.72 14.54C118.051 15.7517 116.817 17.3219 115.935 19.0383L126.607 24.5242C126.69 24.3637 126.752 24.2812 126.778 24.2496C126.802 24.2204 126.801 24.2282 126.771 24.2498L119.72 14.54ZM115.935 19.0383C115.087 20.6866 114.549 22.4535 114.254 24.2748L126.1 26.1911C126.222 25.4366 126.413 24.9024 126.607 24.5242L115.935 19.0383ZM114.252 24.2903C113.976 26.0264 113.914 27.8267 114.222 29.6085L126.047 27.562C126.014 27.374 125.981 26.9395 126.103 26.1756L114.252 24.2903ZM114.224 29.6181C114.561 31.5479 115.397 33.5532 117.049 35.1781L125.464 26.623C125.693 26.8478 125.848 27.0834 125.942 27.2788C126.032 27.4649 126.049 27.5736 126.045 27.5523L114.224 29.6181ZM117.085 35.2133C119.034 37.0978 121.453 37.7386 123.615 37.7386V25.7386C123.674 25.7386 123.926 25.7467 124.289 25.8756C124.673 26.012 125.077 26.2481 125.428 26.5878L117.085 35.2133Z" fill="#03071E" mask="url(#path-1-outside-1_4_19)"/>
</svg>
